<svg width="10" height="7" viewBox="0 0 10 7" fill="none" xmlns="http://www.w3.org/2000/svg">
<path d="M9.7194 0.771554C9.54166 0.597625 9.30123 0.5 9.05062 0.5C8.80001 0.5 8.55958 0.597625 8.38184 0.771554L4.97628 4.07736L1.61816 0.771554C1.44042 0.597625 1.19999 0.5 0.94938 0.5C0.698767 0.5 0.458337 0.597625 0.280601 0.771554C0.191688 0.858367 0.121116 0.961651 0.0729554 1.07545C0.0247951 1.18925 0 1.3113 0 1.43458C0 1.55786 0.0247951 1.67992 0.0729554 1.79372C0.121116 1.90751 0.191688 2.0108 0.280601 2.09761L4.30276 6.0571C4.39095 6.14463 4.49587 6.2141 4.61147 6.26151C4.72706 6.30892 4.85105 6.33333 4.97628 6.33333C5.10151 6.33333 5.2255 6.30892 5.3411 6.26151C5.4567 6.2141 5.56162 6.14463 5.64981 6.0571L9.7194 2.09761C9.80831 2.0108 9.87888 1.90751 9.92704 1.79372C9.9752 1.67992 10 1.55786 10 1.43458C10 1.3113 9.9752 1.18925 9.92704 1.07545C9.87888 0.961651 9.80831 0.858367 9.7194 0.771554Z" fill="#222F54"/>
</svg>
