<svg width="18" height="20" viewBox="0 0 18 20" fill="none" xmlns="http://www.w3.org/2000/svg">
<path d="M10.4417 17.5001C10.2952 17.7526 10.0849 17.9623 9.83185 18.108C9.57884 18.2538 9.29198 18.3305 9 18.3305C8.70802 18.3305 8.42116 18.2538 8.16814 18.108C7.91513 17.9623 7.70484 17.7526 7.55833 17.5001M14 6.66675C14 5.34067 13.4732 4.0689 12.5355 3.13121C11.5979 2.19353 10.3261 1.66675 9 1.66675C7.67392 1.66675 6.40215 2.19353 5.46447 3.13121C4.52678 4.0689 4 5.34067 4 6.66675C4 12.5001 1.5 14.1667 1.5 14.1667H16.5C16.5 14.1667 14 12.5001 14 6.66675Z" stroke="#222F54" stroke-width="2" stroke-linecap="round" stroke-linejoin="round"/>
</svg>
