<svg width="17" height="17" viewBox="0 0 17 17" fill="none" xmlns="http://www.w3.org/2000/svg">
<path d="M8.33334 0C6.68516 0 5.07399 0.488742 3.70358 1.40442C2.33318 2.3201 1.26507 3.62159 0.634341 5.1443C0.0036107 6.66702 -0.161417 8.34258 0.160126 9.95909C0.48167 11.5756 1.27534 13.0605 2.44078 14.2259C3.60622 15.3913 5.09108 16.185 6.70758 16.5065C8.32409 16.8281 9.99965 16.6631 11.5224 16.0323C13.0451 15.4016 14.3466 14.3335 15.2622 12.9631C16.1779 11.5927 16.6667 9.98151 16.6667 8.33333C16.6667 7.23898 16.4511 6.15535 16.0323 5.1443C15.6135 4.13326 14.9997 3.2146 14.2259 2.44078C13.4521 1.66696 12.5334 1.05313 11.5224 0.634337C10.5113 0.215548 9.42769 0 8.33334 0ZM8.33334 15C7.0148 15 5.72586 14.609 4.62954 13.8765C3.53321 13.1439 2.67872 12.1027 2.17414 10.8846C1.66956 9.66638 1.53753 8.32594 1.79477 7.03273C2.052 5.73952 2.68694 4.55164 3.61929 3.61929C4.55164 2.68694 5.73953 2.052 7.03274 1.79477C8.32594 1.53753 9.66639 1.66955 10.8846 2.17414C12.1027 2.67872 13.1439 3.5332 13.8765 4.62953C14.609 5.72586 15 7.01479 15 8.33333C15 10.1014 14.2976 11.7971 13.0474 13.0474C11.7971 14.2976 10.1014 15 8.33334 15Z" fill="#E95812"/>
<path d="M10.5835 5.3249L7.43349 9.49157L6.07516 7.73324C5.93923 7.55864 5.73952 7.44518 5.51994 7.41783C5.30037 7.39048 5.07893 7.45148 4.90432 7.5874C4.72972 7.72333 4.61627 7.92304 4.58892 8.14262C4.56157 8.36219 4.62257 8.58364 4.75849 8.75824L6.78349 11.3499C6.86197 11.4492 6.96204 11.5294 7.07611 11.5842C7.19018 11.6391 7.31525 11.6673 7.44183 11.6666C7.56909 11.6663 7.69459 11.6368 7.80871 11.5805C7.92283 11.5241 8.02253 11.4424 8.10016 11.3416L11.9085 6.34157C12.0433 6.16476 12.1024 5.94163 12.0727 5.72128C12.043 5.50092 11.927 5.30139 11.7502 5.16657C11.5733 5.03175 11.3502 4.97269 11.1299 5.00239C10.9095 5.03208 10.71 5.14809 10.5752 5.3249H10.5835Z" fill="#E95812"/>
</svg>
